<svg xmlns="http://www.w3.org/2000/svg" width="29.068" height="29.068" viewBox="0 0 29.068 29.068">
  <g id="Icon_feather-settings" data-name="Icon feather-settings" transform="translate(-0.5 -0.5)">
    <path id="Path_521" data-name="Path 521" d="M20.882,17.191A3.691,3.691,0,1,1,17.191,13.5,3.691,3.691,0,0,1,20.882,17.191Z" transform="translate(-2.157 -2.157)" fill="none" stroke="#000" stroke-linecap="round" stroke-linejoin="round" stroke-width="2"/>
    <path id="Path_522" data-name="Path 522" d="M24.139,18.725a2.03,2.03,0,0,0,.406,2.239l.074.074a2.462,2.462,0,1,1-3.482,3.482l-.074-.074a2.047,2.047,0,0,0-3.47,1.452v.209a2.461,2.461,0,1,1-4.922,0V26a2.03,2.03,0,0,0-1.329-1.858,2.03,2.03,0,0,0-2.239.406l-.074.074a2.462,2.462,0,1,1-3.482-3.482l.074-.074a2.047,2.047,0,0,0-1.452-3.47H3.961a2.461,2.461,0,1,1,0-4.922h.111a2.03,2.03,0,0,0,1.858-1.329A2.03,2.03,0,0,0,5.523,9.1L5.45,9.03A2.462,2.462,0,1,1,8.932,5.548l.074.074a2.03,2.03,0,0,0,2.239.406h.1a2.03,2.03,0,0,0,1.23-1.858V3.961a2.461,2.461,0,0,1,4.922,0v.111a2.047,2.047,0,0,0,3.47,1.452l.074-.074A2.462,2.462,0,1,1,24.52,8.932l-.074.074a2.03,2.03,0,0,0-.406,2.239v.1a2.03,2.03,0,0,0,1.858,1.23h.209a2.461,2.461,0,1,1,0,4.922H26a2.03,2.03,0,0,0-1.858,1.23Z" transform="translate(0 0)" fill="none" stroke="#000" stroke-linecap="round" stroke-linejoin="round" stroke-width="2"/>
  </g>
</svg>
