<svg xmlns="http://www.w3.org/2000/svg" xmlns:xlink="http://www.w3.org/1999/xlink" width="445" height="346" viewBox="0 0 445 346">
  <defs>
    <clipPath id="clip-path">
      <path id="Rectangle_276" data-name="Rectangle 276" d="M20,0H425a20,20,0,0,1,20,20V346a0,0,0,0,1,0,0H0a0,0,0,0,1,0,0V20A20,20,0,0,1,20,0Z" transform="translate(0 0.282)" fill="#fff" stroke="#707070" stroke-width="1"/>
    </clipPath>
  </defs>
  <g id="Mask_Group_2" data-name="Mask Group 2" transform="translate(0 -0.282)" clip-path="url(#clip-path)">
    <g id="undraw_relaxing_walk_mljx" transform="translate(-0.356 22.565)">
      <path id="Path_756" data-name="Path 756" d="M250.613,230.162c0-36.835-29.885-124.244-66.749-124.244s-66.749,87.408-66.749,124.244a66.749,66.749,0,0,0,133.5,0Z" transform="translate(195.007 -105.919)" fill="#0fa447"/>
      <path id="Path_757" data-name="Path 757" d="M190.457,398a.549.549,0,0,0,.549-.548V167.5a.549.549,0,0,0-1.1,0V397.45A.549.549,0,0,0,190.457,398Z" transform="translate(188.414 -111.491)" fill="#3f3d56"/>
      <path id="Path_758" data-name="Path 758" d="M161.407,213.65a.547.547,0,0,0,.388-.161l26.419-26.4a.549.549,0,0,0-.776-.775l-26.419,26.4a.548.548,0,0,0,.388.936Z" transform="translate(217.464 -113.244)" fill="#3f3d56"/>
      <path id="Path_759" data-name="Path 759" d="M234.7,262.152a.548.548,0,0,0,.388-.936l-44.244-44.209a.549.549,0,1,0-.776.775l44.244,44.209A.547.547,0,0,0,234.7,262.152Z" transform="translate(144.17 -116.046)" fill="#3f3d56"/>
      <path id="Path_760" data-name="Path 760" d="M224.472,433.6c-.1.074-.2.14-.292.212H142.349c-1.6-6.491-2.17-12.99.225-18.633,3.412-8.041,13.512-13.061,21.541-9.608a12.259,12.259,0,0,1,4.816,3.807c3.138-5.612,8.766-9.844,15.263-9.839,8.14.006,14.907,6.657,17.115,14.339,3.556-6,10.581-10.19,17.447-8.387C230.24,408.506,233.867,426.344,224.472,433.6Z" transform="translate(194.107 -132.725)" fill="#2d6442"/>
      <path id="Path_761" data-name="Path 761" d="M597.555,288.442c0-26.469-21.489-89.279-48-89.279s-48,62.81-48,89.279a48,48,0,0,0,95.994,0Z" transform="translate(-501.561 -114.432)" fill="#48b872"/>
      <path id="Path_762" data-name="Path 762" d="M554.3,409.046a.394.394,0,0,0,.395-.394V243.417a.395.395,0,0,0-.789,0V408.652a.394.394,0,0,0,.395.394Z" transform="translate(-506.301 -118.436)" fill="#3f3d56"/>
      <path id="Path_763" data-name="Path 763" d="M533.41,276.576a.393.393,0,0,0,.279-.115l19-18.969a.394.394,0,1,0-.558-.557l-19,18.969a.394.394,0,0,0,.279.673Z" transform="translate(-485.412 -119.695)" fill="#3f3d56"/>
      <path id="Path_764" data-name="Path 764" d="M586.113,311.429a.394.394,0,0,0,.279-.673l-31.814-31.768a.394.394,0,1,0-.558.557l31.814,31.768A.394.394,0,0,0,586.113,311.429Z" transform="translate(-538.116 -121.709)" fill="#3f3d56"/>
      <path id="Path_765" data-name="Path 765" d="M578.758,434.627c-.069.053-.141.1-.21.152H519.705c-1.153-4.665-1.56-9.334.162-13.389,2.454-5.778,9.716-9.385,15.49-6.9a8.814,8.814,0,0,1,3.463,2.736c2.256-4.033,6.3-7.073,10.975-7.07,5.853,0,10.719,4.783,12.307,10.3,2.557-4.31,7.608-7.322,12.545-6.027C582.905,416.6,585.513,429.414,578.758,434.627Z" transform="translate(-502.208 -133.694)" fill="#2d6442"/>
      <path id="Path_766" data-name="Path 766" d="M308.524,314.425c-4.05,8.006.182,19.286,9.027,21.819a8.921,8.921,0,0,0,7.5-.864,6.543,6.543,0,0,0,2.942-5.663c-.331-4.294-5.8-5.889-9.287-4.5-4.717,1.877-6.83,7.406-7.49,12.049a31.985,31.985,0,0,0,2.521,16.784c4.443,10.5,13.238,18.677,21.957,25.7a138.934,138.934,0,0,0,29.188,18.032q1.966.9,3.96,1.742a.828.828,0,0,1,.3,1.126.845.845,0,0,1-1.126.3,140.775,140.775,0,0,1-32.071-18.91c-9.491-7.442-19.068-16.226-23.8-27.569a33.4,33.4,0,0,1-2.457-17.986c.812-5.124,3.363-10.793,8.507-12.817,4.059-1.6,9.716.086,11.158,4.491a7.481,7.481,0,0,1-1.6,6.956,9.149,9.149,0,0,1-6.971,3.221c-5.293.11-10.136-3.284-12.795-7.688a18.261,18.261,0,0,1-2.12-13.791A16.19,16.19,0,0,1,307.1,313.6c.478-.945,1.9-.113,1.422.83Z" transform="translate(-94.802 -124.841)" fill="#ccc"/>
      <path id="Path_767" data-name="Path 767" d="M336.788,315.951l5.917,2.087,10.871-21.811-8.733-3.08Z" transform="translate(-214.242 -26.763)" fill="#a0616a"/>
      <path id="Path_768" data-name="Path 768" d="M7.617,7.617l12.1,0,0-7.614L0,0H0A7.612,7.612,0,0,0,7.617,7.617Z" transform="translate(137.936 300.793) rotate(-160.559)" fill="#2f2e41"/>
      <path id="Path_769" data-name="Path 769" d="M274.421,322.166H280.7l2.984-24.183h-9.261Z" transform="translate(-87.624 -27.205)" fill="#a0616a"/>
      <path id="Path_770" data-name="Path 770" d="M276.495,322.623h-12.1v7.613h19.721a7.616,7.616,0,0,0-7.619-7.613Z" transform="translate(-78.941 -29.454)" fill="#2f2e41"/>
      <path id="Path_771" data-name="Path 771" d="M455.51,409.551a2.5,2.5,0,0,0,.614-.077l9.254-2.344a2.464,2.464,0,0,0,1.856-2.581l-8.843-115.307-.274.021.274-.021a9.9,9.9,0,0,0-9.344-9.109l-27.967-1.45-4.7,72.362-27.891,50.192a2.467,2.467,0,0,0,1.325,3.521l12.847,4.607a2.457,2.457,0,0,0,3.077-1.288l32.8-70.975a.824.824,0,0,1,1.557.2l13,70.235a2.474,2.474,0,0,0,2.422,2.021Z" transform="translate(-268.132 -121.691)" fill="#2f2e41"/>
      <path id="Path_772" data-name="Path 772" d="M389.6,309.141a5.149,5.149,0,0,0-7.562-2.258L372.3,300.3l-5.446,4.942,13.893,9.1a5.174,5.174,0,0,0,8.86-5.2Z" transform="translate(-171.54 -123.665)" fill="#a0616a"/>
      <ellipse id="Ellipse_85" data-name="Ellipse 85" cx="13.481" cy="13.47" rx="13.481" ry="13.47" transform="translate(151.607 86.123)" fill="#a0616a"/>
      <path id="Path_773" data-name="Path 773" d="M429.148,279.628a5.116,5.116,0,0,0,5.021-6.055l-2.353-12.567c2.512-9.112-10.282-17.146-10.829-17.484l-7.982-3.058-.1.256.1-.256a9.726,9.726,0,0,0-13.2,9.417l.968,27.636,27.982,2.1C428.887,279.623,429.018,279.628,429.148,279.628Z" transform="translate(-245.719 -118.143)" fill="#0fa447"/>
      <path id="Path_774" data-name="Path 774" d="M428.11,365.285a135.613,135.613,0,0,0,18.36-1.467l.257-.04-.026-.259C446.217,358.8,434.819,247.825,432.353,240c-.637-2.021-2.62-3.61-5.892-4.722a21.494,21.494,0,0,0-26.3,11.794,28.048,28.048,0,0,0-2.367,11.843l2.075,97.695.219.041c.057.011,5.8,1.133,13.388,6.031C416.561,364.678,422.286,365.285,428.11,365.285Z" transform="translate(-256.359 -117.63)" fill="#3f3d56"/>
      <path id="Path_775" data-name="Path 775" d="M409.911,261.368c-7.131,12.1-3.533,18.538,3.213,30.882,3.742,6.847,15.286,15.315,20.694,9.872s1.134-12.843-1.215-20.359-7.4-13.7-12.672-19.295C416.172,258.482,408.41,261.754,409.911,261.368Z" transform="translate(-253.548 -120.028)" opacity="0.051"/>
      <path id="Path_776" data-name="Path 776" d="M428.7,307.462a2.473,2.473,0,0,0,2.386-1.831l1.712-6.395a2.478,2.478,0,0,0-.949-2.645l-27.71-19.81L400.4,255.588a10.482,10.482,0,1,0-20.163,5.43l7.892,21.456a17.366,17.366,0,0,0,8.692,9.638l30.787,15.1a2.468,2.468,0,0,0,1.088.253Z" transform="translate(-225.969 -118.792)" fill="#3f3d56"/>
      <path id="Path_777" data-name="Path 777" d="M435.035,208.426a6.036,6.036,0,0,0,11.324-3.908,13.47,13.47,0,0,0-24.981-3.667,9.385,9.385,0,1,0-9.258,16.235c2.36,1.069,2.184,5.194-.258,6.059a4.162,4.162,0,0,0,.042,7.862,32.107,32.107,0,0,0,9.45,2.194c3.246.082,6.685-.967,8.734-3.485s2.192-6.649-.225-8.816a7.727,7.727,0,0,1-1.569-9.187C429.907,208.774,434.222,206.767,435.035,208.426Z" transform="translate(-264.256 -113.947)" fill="#2f2e41"/>
      <path id="Path_778" data-name="Path 778" d="M327.754,432.642a3.563,3.563,0,0,0,3.072-5.366h0l-4.993-8.518-6.157,3.6,4.993,8.518A3.57,3.57,0,0,0,327.754,432.642Z" transform="translate(-69.91 -134.48)" fill="#0fa447"/>
      <ellipse id="Ellipse_86" data-name="Ellipse 86" cx="4.391" cy="4.387" rx="4.391" ry="4.387" transform="translate(233.859 269.92)" fill="#0fa447"/>
      <path id="Path_779" data-name="Path 779" d="M306.51,432.642a3.563,3.563,0,0,0,3.072-5.366l-4.993-8.518-6.157,3.6,4.993,8.518a3.571,3.571,0,0,0,3.085,1.762Z" transform="translate(-29.348 -134.48)" fill="#0fa447"/>
      <path id="Path_780" data-name="Path 780" d="M306.476,425.9H328.6a11.365,11.365,0,0,0,11.356-11.347v-3.358a3.947,3.947,0,0,0-3.944-3.941H306.476a9.323,9.323,0,1,0,0,18.646Z" transform="translate(-58.062 -133.429)" fill="#3f3d56"/>
      <path id="Path_781" data-name="Path 781" d="M332.453,435.88a3.57,3.57,0,0,0,3.568-3.565v-9.872h-7.135v9.872A3.57,3.57,0,0,0,332.453,435.88Z" transform="translate(-82.99 -134.816)" fill="#3f3d56"/>
      <path id="Path_782" data-name="Path 782" d="M309.686,435.88a3.57,3.57,0,0,0,3.568-3.565v-9.872h-7.135v9.872A3.57,3.57,0,0,0,309.686,435.88Z" transform="translate(-39.519 -134.816)" fill="#3f3d56"/>
      <path id="Path_783" data-name="Path 783" d="M294.954,390.948h8.782V379.431a4.391,4.391,0,0,0-8.782,0Z" transform="translate(-19.847 -130.489)" fill="#0fa447"/>
      <path id="Path_784" data-name="Path 784" d="M287.558,408.407h14.524a3.169,3.169,0,0,0,3.166-3.164v-7.6a10.09,10.09,0,0,0-10.083-10.075h-2.317a8.463,8.463,0,0,0-8.457,8.45v9.227A3.169,3.169,0,0,0,287.558,408.407Z" transform="translate(-11.755 -131.632)" fill="#3f3d56"/>
      <path id="Path_785" data-name="Path 785" d="M297.971,390.948h6.037V378.06a3.019,3.019,0,0,0-6.037,0Z" transform="translate(-22.864 -130.489)" fill="#3f3d56"/>
      <path id="Path_786" data-name="Path 786" d="M280.625,409.516h15.917a4.387,4.387,0,1,0,0-8.775H280.625Z" transform="translate(-4.013 -132.835)" fill="#3f3d56"/>
      <ellipse id="Ellipse_87" data-name="Ellipse 87" cx="1.029" cy="1.851" rx="1.029" ry="1.851" transform="translate(295.479 270.363)" fill="#0fa447"/>
      <path id="Path_787" data-name="Path 787" d="M267.577,437.144H476.694a.548.548,0,1,0,0-1.1H267.577a.548.548,0,1,0,0,1.1Z" transform="translate(-167.958 -136.058)" fill="#3f3d56"/>
    </g>
  </g>
</svg>
