<svg xmlns="http://www.w3.org/2000/svg" xmlns:xlink="http://www.w3.org/1999/xlink" width="445" height="346" viewBox="0 0 445 346">
  <defs>
    <clipPath id="clip-path">
      <rect id="Rectangle_227" data-name="Rectangle 227" width="445" height="346" transform="translate(-0.11)" fill="#fff" stroke="#000" stroke-width="1"/>
    </clipPath>
    <linearGradient id="linear-gradient" x1="-0.013" y1="0.424" x2="0.96" y2="0.424" gradientUnits="objectBoundingBox">
      <stop offset="0" stop-color="gray" stop-opacity="0.251"/>
      <stop offset="0.54" stop-color="gray" stop-opacity="0.122"/>
      <stop offset="1" stop-color="gray" stop-opacity="0.102"/>
    </linearGradient>
  </defs>
  <g id="Mask_Group_1" data-name="Mask Group 1" transform="translate(0.11)" clip-path="url(#clip-path)">
    <g id="undraw_good_doggy_4wfq" transform="translate(0 14.468)">
      <path id="Path_676" data-name="Path 676" d="M468.894,351.553c-3.32,1.711-6.8,3.189-10.225,4.639-12.677,5.348-25.55,10.752-39.165,12.589-25.583,3.427-51.977-5.9-77.108-.079-21.051,4.858-38.461,19.746-59.027,26.376a95.9,95.9,0,0,1-29.551,4.289h-1.3c-1.236,0-2.466-.047-3.7-.093a198.684,198.684,0,0,1-30.376-3.809c-31.5-6.061-63.568-17.172-87.654-37.626C200.924,345.021,345.391,325.355,468.894,351.553Z" transform="translate(-69.056 -82.086)" fill="#252223" opacity="0.1"/>
      <path id="Path_677" data-name="Path 677" d="M424.284,116.1V86.256H406.566V116.1H385.585V69.937H370.2v-34.5H357.611V0H331.5V35.435H318.912v34.5h-14.92v-41.5H295.6V7.46h-5.129V28.441h-29.84V160.855H237.785V146.867H223.8v13.987H200.952V116.1h-41.03V86.256H142.205V116.1h-.932v57.348h-18.65v-33.57h-22.38v33.57H81.593V69.937H67.139v-34.5H13.987v34.5H0v182.3H445.265V116.1Z" fill="#0fa447" opacity="0.3"/>
      <rect id="Rectangle_228" data-name="Rectangle 228" width="19.582" height="11.19" transform="translate(8.859 80.661)" fill="#fff" opacity="0.4"/>
      <rect id="Rectangle_229" data-name="Rectangle 229" width="19.582" height="11.19" transform="translate(72.268 91.85) rotate(180)" fill="#fff" opacity="0.4"/>
      <rect id="Rectangle_230" data-name="Rectangle 230" width="19.582" height="11.19" transform="translate(8.859 102.574)" fill="#fff" opacity="0.4"/>
      <rect id="Rectangle_231" data-name="Rectangle 231" width="19.582" height="11.19" transform="translate(72.268 113.764) rotate(180)" fill="#fff" opacity="0.4"/>
      <rect id="Rectangle_232" data-name="Rectangle 232" width="19.582" height="11.19" transform="translate(8.859 124.488)" fill="#fff" opacity="0.4"/>
      <rect id="Rectangle_233" data-name="Rectangle 233" width="19.582" height="11.19" transform="translate(72.268 135.678) rotate(180)" fill="#fff" opacity="0.4"/>
      <rect id="Rectangle_234" data-name="Rectangle 234" width="19.582" height="11.19" transform="translate(8.859 146.401)" fill="#fff" opacity="0.4"/>
      <rect id="Rectangle_235" data-name="Rectangle 235" width="19.582" height="11.19" transform="translate(72.268 157.591) rotate(180)" fill="#fff" opacity="0.4"/>
      <rect id="Rectangle_236" data-name="Rectangle 236" width="19.582" height="11.19" transform="translate(8.859 168.315)" fill="#fff" opacity="0.4"/>
      <rect id="Rectangle_237" data-name="Rectangle 237" width="19.582" height="11.19" transform="translate(72.268 179.505) rotate(180)" fill="#fff" opacity="0.4"/>
      <rect id="Rectangle_238" data-name="Rectangle 238" width="19.582" height="11.19" transform="translate(8.859 190.228)" fill="#fff" opacity="0.4"/>
      <rect id="Rectangle_239" data-name="Rectangle 239" width="19.582" height="11.19" transform="translate(72.268 201.418) rotate(180)" fill="#fff" opacity="0.4"/>
      <rect id="Rectangle_240" data-name="Rectangle 240" width="19.582" height="11.19" transform="translate(8.859 212.142)" fill="#fff" opacity="0.4"/>
      <rect id="Rectangle_241" data-name="Rectangle 241" width="19.582" height="11.19" transform="translate(72.268 223.332) rotate(180)" fill="#fff" opacity="0.4"/>
      <rect id="Rectangle_242" data-name="Rectangle 242" width="45.692" height="5.595" transform="translate(88.587 184.633)" fill="#fff" opacity="0.4"/>
      <rect id="Rectangle_243" data-name="Rectangle 243" width="45.692" height="5.595" transform="translate(88.587 193.026)" fill="#fff" opacity="0.4"/>
      <rect id="Rectangle_244" data-name="Rectangle 244" width="45.692" height="5.595" transform="translate(88.587 201.418)" fill="#fff" opacity="0.4"/>
      <rect id="Rectangle_245" data-name="Rectangle 245" width="45.692" height="5.595" transform="translate(207.946 187.431)" fill="#fff" opacity="0.4"/>
      <rect id="Rectangle_246" data-name="Rectangle 246" width="45.692" height="5.595" transform="translate(207.946 195.823)" fill="#fff" opacity="0.4"/>
      <rect id="Rectangle_247" data-name="Rectangle 247" width="45.692" height="5.595" transform="translate(207.946 204.216)" fill="#fff" opacity="0.4"/>
      <rect id="Rectangle_248" data-name="Rectangle 248" width="45.692" height="5.595" transform="translate(88.587 209.811)" fill="#fff" opacity="0.4"/>
      <rect id="Rectangle_249" data-name="Rectangle 249" width="45.692" height="5.595" transform="translate(88.587 218.203)" fill="#fff" opacity="0.4"/>
      <rect id="Rectangle_250" data-name="Rectangle 250" width="45.692" height="5.595" transform="translate(88.587 226.596)" fill="#fff" opacity="0.4"/>
      <rect id="Rectangle_251" data-name="Rectangle 251" width="12.589" height="16.319" transform="translate(151.064 126.819)" fill="#fff" opacity="0.4"/>
      <rect id="Rectangle_252" data-name="Rectangle 252" width="12.589" height="16.319" transform="translate(191.161 143.138) rotate(180)" fill="#fff" opacity="0.4"/>
      <rect id="Rectangle_253" data-name="Rectangle 253" width="12.589" height="16.319" transform="translate(151.064 152.929)" fill="#fff" opacity="0.4"/>
      <rect id="Rectangle_254" data-name="Rectangle 254" width="12.589" height="16.319" transform="translate(191.161 169.247) rotate(180)" fill="#fff" opacity="0.4"/>
      <rect id="Rectangle_255" data-name="Rectangle 255" width="12.589" height="16.319" transform="translate(151.064 179.038)" fill="#fff" opacity="0.4"/>
      <rect id="Rectangle_256" data-name="Rectangle 256" width="12.589" height="16.319" transform="translate(191.161 195.357) rotate(180)" fill="#fff" opacity="0.4"/>
      <rect id="Rectangle_257" data-name="Rectangle 257" width="12.589" height="16.319" transform="translate(151.064 205.148)" fill="#fff" opacity="0.4"/>
      <rect id="Rectangle_258" data-name="Rectangle 258" width="12.589" height="16.319" transform="translate(191.161 221.467) rotate(180)" fill="#fff" opacity="0.4"/>
      <rect id="Rectangle_259" data-name="Rectangle 259" width="16.785" height="21.447" transform="translate(260.631 39.165)" fill="#fff" opacity="0.4"/>
      <rect id="Rectangle_260" data-name="Rectangle 260" width="16.785" height="21.447" transform="translate(260.631 69.937)" fill="#fff" opacity="0.4"/>
      <rect id="Rectangle_261" data-name="Rectangle 261" width="16.785" height="21.447" transform="translate(260.631 100.709)" fill="#fff" opacity="0.4"/>
      <rect id="Rectangle_262" data-name="Rectangle 262" width="16.785" height="21.447" transform="translate(260.631 131.481)" fill="#fff" opacity="0.4"/>
      <rect id="Rectangle_263" data-name="Rectangle 263" width="16.785" height="21.447" transform="translate(260.631 162.254)" fill="#fff" opacity="0.4"/>
      <rect id="Rectangle_264" data-name="Rectangle 264" width="16.785" height="21.447" transform="translate(260.631 193.026)" fill="#fff" opacity="0.4"/>
      <rect id="Rectangle_265" data-name="Rectangle 265" width="62.477" height="18.184" transform="translate(313.55 82.992)" fill="#fff" opacity="0.4"/>
      <rect id="Rectangle_266" data-name="Rectangle 266" width="62.477" height="18.184" transform="translate(313.784 122.156)" fill="#fff" opacity="0.4"/>
      <rect id="Rectangle_267" data-name="Rectangle 267" width="62.477" height="18.184" transform="translate(314.017 161.321)" fill="#fff" opacity="0.4"/>
      <rect id="Rectangle_268" data-name="Rectangle 268" width="62.477" height="18.184" transform="translate(314.25 200.486)" fill="#fff" opacity="0.4"/>
      <rect id="Rectangle_269" data-name="Rectangle 269" width="8.392" height="17.717" transform="translate(13.987 45.226)" fill="#fff" opacity="0.4"/>
      <rect id="Rectangle_270" data-name="Rectangle 270" width="20.981" height="27.042" transform="translate(424.284 126.819)" fill="#fff" opacity="0.4"/>
      <rect id="Rectangle_271" data-name="Rectangle 271" width="20.981" height="27.042" transform="translate(424.284 165.984)" fill="#fff" opacity="0.4"/>
      <rect id="Rectangle_272" data-name="Rectangle 272" width="20.981" height="27.042" transform="translate(424.284 205.148)" fill="#fff" opacity="0.4"/>
      <path id="Path_678" data-name="Path 678" d="M87.34,302.046S50.632,324.193,118.3,358.29c0,0,14.92-27.676-1.576-50.243a22.221,22.221,0,0,0-28.833-6.318Z" transform="translate(-64.181 -78.458)" fill="#0fa447"/>
      <path id="Path_679" data-name="Path 679" d="M88.805,301.85s31.411,24.035,30.534,56.71" transform="translate(-65.223 -78.728)" fill="none" stroke="#000" stroke-miterlimit="10" stroke-width="0.513"/>
      <path id="Path_680" data-name="Path 680" d="M123.831,353.116s-11.5-39.053,2.159-67.8a61.7,61.7,0,0,0,4.984-38.7,103.464,103.464,0,0,0-5.478-18.184" transform="translate(-68.007 -72.026)" fill="none" stroke="#000" stroke-miterlimit="10" stroke-width="1.026"/>
      <path id="Path_681" data-name="Path 681" d="M133.714,207.582c0,4.784-8.663,18.65-8.663,18.65s-8.668-13.88-8.668-18.65a8.668,8.668,0,1,1,17.33,0Z" transform="translate(-67.74 -69.312)" fill="#0fa447"/>
      <path id="Path_682" data-name="Path 682" d="M149.488,236.3c-2.6,4.019-17.419,10.957-17.419,10.957s.266-16.361,2.867-20.375a8.667,8.667,0,1,1,14.552,9.419Z" transform="translate(-69.173 -71.523)" fill="#0fa447"/>
      <path id="Path_683" data-name="Path 683" d="M148.479,285.856c-4.271,2.154-20.566.662-20.566.662s8.49-13.987,12.766-16.141a8.667,8.667,0,1,1,7.8,15.48Z" transform="translate(-68.793 -75.77)" fill="#0fa447"/>
      <path id="Path_684" data-name="Path 684" d="M139.505,323.538c-3.847,2.844-20.156,4.131-20.156,4.131s6-15.223,9.852-18.067a8.667,8.667,0,1,1,10.305,13.937Z" transform="translate(-68.011 -79.281)" fill="#0fa447"/>
      <path id="Path_685" data-name="Path 685" d="M111.779,249.231c3.432,3.334,19.428,6.789,19.428,6.789s-3.916-15.885-7.353-19.219a8.665,8.665,0,0,0-12.076,12.43Z" transform="translate(-67.08 -72.566)" fill="#0fa447"/>
      <path id="Path_686" data-name="Path 686" d="M101.58,293.188c4.271,2.159,20.566.667,20.566.667s-8.49-13.987-12.761-16.141a8.667,8.667,0,1,0-7.806,15.476Z" transform="translate(-65.954 -76.44)" fill="#0fa447"/>
      <path id="Path_687" data-name="Path 687" d="M97.883,337.473c3.847,2.844,20.16,4.131,20.16,4.131s-6.005-15.223-9.856-18.067a8.667,8.667,0,1,0-10.305,13.937Z" transform="translate(-65.73 -80.553)" fill="#0fa447"/>
      <path id="Path_688" data-name="Path 688" d="M133.714,207.582c0,4.784-8.663,18.65-8.663,18.65s-8.668-13.88-8.668-18.65a8.668,8.668,0,1,1,17.33,0Z" transform="translate(-67.74 -69.312)" opacity="0.25"/>
      <path id="Path_689" data-name="Path 689" d="M149.488,236.3c-2.6,4.019-17.419,10.957-17.419,10.957s.266-16.361,2.867-20.375a8.667,8.667,0,1,1,14.552,9.419Z" transform="translate(-69.173 -71.523)" opacity="0.25"/>
      <path id="Path_690" data-name="Path 690" d="M148.479,285.856c-4.271,2.154-20.566.662-20.566.662s8.49-13.987,12.766-16.141a8.667,8.667,0,1,1,7.8,15.48Z" transform="translate(-68.793 -75.77)" opacity="0.25"/>
      <path id="Path_691" data-name="Path 691" d="M139.505,323.538c-3.847,2.844-20.156,4.131-20.156,4.131s6-15.223,9.852-18.067a8.667,8.667,0,1,1,10.305,13.937Z" transform="translate(-68.011 -79.281)" opacity="0.25"/>
      <path id="Path_692" data-name="Path 692" d="M111.779,249.231c3.432,3.334,19.428,6.789,19.428,6.789s-3.916-15.885-7.353-19.219a8.665,8.665,0,0,0-12.076,12.43Z" transform="translate(-67.08 -72.566)" opacity="0.25"/>
      <path id="Path_693" data-name="Path 693" d="M101.58,293.188c4.271,2.159,20.566.667,20.566.667s-8.49-13.987-12.761-16.141a8.667,8.667,0,1,0-7.806,15.476Z" transform="translate(-65.954 -76.44)" opacity="0.25"/>
      <path id="Path_694" data-name="Path 694" d="M97.883,337.473c3.847,2.844,20.16,4.131,20.16,4.131s-6.005-15.223-9.856-18.067a8.667,8.667,0,1,0-10.305,13.937Z" transform="translate(-65.73 -80.553)" opacity="0.25"/>
      <path id="Path_695" data-name="Path 695" d="M518.935,342.018s-11.5-39.053,2.159-67.8a61.7,61.7,0,0,0,4.989-38.7,104.262,104.262,0,0,0-5.478-18.184" transform="translate(-104.079 -71.013)" fill="none" stroke="#000" stroke-miterlimit="10" stroke-width="1.026"/>
      <path id="Path_696" data-name="Path 696" d="M528.839,196.5c0,4.784-8.668,18.65-8.668,18.65s-8.668-13.88-8.668-18.65a8.668,8.668,0,0,1,17.335,0Z" transform="translate(-103.813 -68.319)" fill="#0fa447"/>
      <path id="Path_697" data-name="Path 697" d="M544.592,225.206c-2.6,4.019-17.419,10.957-17.419,10.957s.27-16.361,2.872-20.375a8.665,8.665,0,0,1,14.547,9.418Z" transform="translate(-105.244 -70.51)" fill="#0fa447"/>
      <path id="Path_698" data-name="Path 698" d="M543.588,274.758c-4.275,2.154-20.571.662-20.571.662s8.495-13.987,12.766-16.141a8.668,8.668,0,0,1,7.8,15.479Z" transform="translate(-104.865 -74.757)" fill="#0fa447"/>
      <path id="Path_699" data-name="Path 699" d="M534.614,312.44c-3.851,2.844-20.16,4.131-20.16,4.131s6.005-15.223,9.852-18.067a8.667,8.667,0,1,1,10.309,13.936Z" transform="translate(-104.083 -78.268)" fill="#0fa447"/>
      <path id="Path_700" data-name="Path 700" d="M506.883,238.117c3.436,3.334,19.428,6.789,19.428,6.789s-3.916-15.885-7.348-19.219a8.667,8.667,0,1,0-12.081,12.431Z" transform="translate(-103.152 -71.551)" fill="#0fa447"/>
      <path id="Path_701" data-name="Path 701" d="M496.7,282.09c4.275,2.159,20.571.667,20.571.667s-8.49-13.987-12.766-16.141a8.667,8.667,0,1,0-7.806,15.476Z" transform="translate(-102.027 -75.426)" fill="#0fa447"/>
      <path id="Path_702" data-name="Path 702" d="M492.987,326.375c3.851,2.844,20.161,4.131,20.161,4.131s-6.005-15.218-9.852-18.067a8.667,8.667,0,1,0-10.309,13.936Z" transform="translate(-101.802 -79.54)" fill="#0fa447"/>
      <path id="Path_703" data-name="Path 703" d="M462.049,343.632s-6.182-20.981,1.161-36.432a33.183,33.183,0,0,0,2.681-20.795,55.826,55.826,0,0,0-2.947-9.763" transform="translate(-99.076 -76.427)" fill="none" stroke="#000" stroke-miterlimit="10" stroke-width="1.026"/>
      <path id="Path_704" data-name="Path 704" d="M467.37,265.43c0,2.574-4.662,10.034-4.662,10.034s-4.662-7.46-4.662-10.034a4.662,4.662,0,1,1,9.325,0Z" transform="translate(-98.933 -74.978)" fill="#0fa447"/>
      <path id="Path_705" data-name="Path 705" d="M475.837,280.873c-1.4,2.159-9.362,5.889-9.362,5.889s.145-8.793,1.543-10.952a4.662,4.662,0,0,1,7.819,5.063Z" transform="translate(-99.703 -76.173)" fill="#0fa447"/>
      <path id="Path_706" data-name="Path 706" d="M475.3,307.489c-2.3,1.156-11.055.354-11.055.354s4.565-7.516,6.858-8.672a4.662,4.662,0,0,1,4.2,8.318Z" transform="translate(-99.499 -78.446)" fill="#0fa447"/>
      <path id="Path_707" data-name="Path 707" d="M470.471,327.717c-2.065,1.529-10.831,2.219-10.831,2.219s3.226-8.178,5.3-9.707a4.662,4.662,0,1,1,5.534,7.488Z" transform="translate(-99.079 -80.309)" fill="#0fa447"/>
      <path id="Path_708" data-name="Path 708" d="M455.557,287.788c1.865,1.79,10.439,3.646,10.439,3.646s-2.1-8.537-3.949-10.327a4.662,4.662,0,1,0-6.49,6.681Z" transform="translate(-98.562 -76.7)" fill="#0fa447"/>
      <path id="Path_709" data-name="Path 709" d="M450.108,311.435c2.3,1.156,11.055.359,11.055.359s-4.565-7.516-6.863-8.677a4.662,4.662,0,0,0-4.2,8.318Z" transform="translate(-97.99 -78.806)" fill="#0fa447"/>
      <path id="Path_710" data-name="Path 710" d="M448.121,335.239c2.065,1.529,10.831,2.219,10.831,2.219s-3.24-8.183-5.292-9.712a4.662,4.662,0,0,0-5.539,7.493Z" transform="translate(-97.868 -81.019)" fill="#0fa447"/>
      <path id="Path_714" data-name="Path 714" d="M424.767,327.513a.7.7,0,1,0-.7-.7A.7.7,0,0,0,424.767,327.513Z" transform="translate(-95.831 -80.943)" fill="#535461"/>
      <g id="Group_401" data-name="Group 401" transform="translate(122.2 62.113)" opacity="0.5">
        <path id="Path_715" data-name="Path 715" d="M318.525,269.1l-6.775-31.891h.695l-.107-.541h.2l-3.506-17.251s.177-18.02,1.03-24.991c.625-5.087,1.613-11.568.891-17.023a5.135,5.135,0,0,0,.275-.466,4.919,4.919,0,0,0,.531-1.865,7.688,7.688,0,0,0-.587-4.5l7.045-4.4c.159,0,.322.033.466.042a1.491,1.491,0,0,0-.117-.3,15.666,15.666,0,0,0,15.507-10.187,10.388,10.388,0,0,0,2.271,2.443c1.9,1.422,4.886,1.739,6.467-.028a5.441,5.441,0,0,0,1.133-2.438c.093-.4.159-.811.214-1.217.9-4.765-1.068-9.679-3.6-13.857-3.166-5.217-7.367-9.94-12.705-12.906s-11.889-4.028-17.666-2.051-11.6,7.343-12.122,13.428c-.261,3.11.112,4.551-.532,7.6-.322,1.52.373,4.481.364,6.159a7.6,7.6,0,0,0-.112.932c-.093,1.865.648,3.627,1.189,5.418-7.618.382-27.653,1.926-33.439,7.81-7.2,7.315-24.851,9.931-24.851,9.931l-29.4,5.917-10.257,4.355.117.466-.205.089s.364,1.357.886,3.147a13.321,13.321,0,0,0-4.238,7.926c-.569,3.166-.266,7.241,1.739,12.439,0,0,10.122,18.589,10.822,26.086l12.775,25.5c-1.1,2.187-12.043,24.287-13.927,36.656a25.262,25.262,0,0,0-.3,2.69s-.07.653-.242,1.739c-.751,4.583-3.124,15.852-8.919,21.121h0l.075.065h0l-.168.163.131.112c-1.739,3.324.774,7.828.774,7.828L203.2,346.02l3.2.518,3.366-1.371,1.865,3.585s14.524,2.331,18.65,2.2-3.5-7.129-6.168-9.2c-1.483-1.147-2.644-5.861-3.38-9.828a6.185,6.185,0,0,0,1.04-1.077s-1.776-9.325,3.571-22.119c2.28-5.446,4.732-11.707,6.807-17.1,1.114,7.245,2.285,14.71,3.147,19.806,1.254,7.381,1.091,11.885.7,14.426a8.571,8.571,0,0,1-.62,2.578.657.657,0,0,1,.047.075,1.331,1.331,0,0,1-.089.191c.028.047.056.089.079.135-2.919,3.338.121,8.784.121,8.784l2.858,12.729,3.2.518,3.366-1.371,1.865,3.585s14.524,2.331,18.65,2.2-3.5-7.129-6.173-9.2c-2.084-1.618-3.529-10.3-4.066-14.029.387-.037.6-.065.6-.065l-.042-.256h.089l-1.828-10.686c-3.124-2.69-2.69-40.908-2.69-40.908a30.114,30.114,0,0,1-1.678,3.674c.159-.643.746-2.462,2.107-6.336a38.124,38.124,0,0,0,1.767-6.844c1.478-9.1-1.278-14.659-1.278-14.659.182-1.828-1.744-8.929-4.019-16.491l7.148-13.931a5.7,5.7,0,0,0,3.115.256L263.942,216s11.19-6.667,14.393-6.15c2.979.466,12.314-1.576,15.922-5.464a7.381,7.381,0,0,0,.709-.909c2.9-4.453,1.711,23.247,1.711,23.247l-1.553,9.6-.084.532,4.63.093,10.91,37.421s.685,12.691,13.083,15.512S318.525,269.1,318.525,269.1ZM244,225.855c-.671-2.07-1.259-3.856-1.7-5.194l2.308-1.8s.289.242.779.629Z" transform="translate(-197.331 -124.665)" fill="url(#linear-gradient)"/>
      </g>
      <path id="Path_716" data-name="Path 716" d="M259.032,348.056s1.581,13.316,4.2,15.339,10.038,8.817,6.015,8.966-18.184-2.135-18.184-2.135l-1.832-3.5-3.264,1.333-3.119-.5-2.8-12.444s-3.926-7.031,1.6-9.87S259.032,348.056,259.032,348.056Z" transform="translate(-78.907 -82.617)" fill="#3a384d"/>
      <path id="Path_717" data-name="Path 717" d="M244.081,226.743s10.98,32.679,10.565,36.875c0,0,4.024,8.113-.415,20.725s-.466,2.858-.466,2.858-.42,37.248,2.62,39.873l1.781,10.416s-17.121,2.033-20-3.231c0,0,2.229-3.9.047-16.785s-6.388-41.267-6.388-41.267l-11.4-64.748Z" transform="translate(-77.239 -70.476)" opacity="0.1"/>
      <path id="Path_718" data-name="Path 718" d="M244.127,226.456s10.98,32.7,10.565,36.894c0,0,4.024,8.113-.415,20.725s-.466,2.858-.466,2.858-.42,37.253,2.62,39.873l1.781,10.421s-17.121,2.028-20-3.236c0,0,2.229-3.9.047-16.785s-6.392-41.281-6.392-41.281l-11.39-64.752Z" transform="translate(-77.244 -70.45)" fill="#bec7de"/>
      <path id="Path_719" data-name="Path 719" d="M223.326,212.873l11.167,63.475s4.2,28.4,6.392,41.281-.047,16.785-.047,16.785c.839,1.534,2.877,2.443,5.348,2.97-3.469-.406-6.6-1.352-7.688-3.348,0,0,2.233-3.9.051-16.785s-6.392-41.281-6.392-41.281l-11.4-64.752Z" transform="translate(-77.27 -70.454)" opacity="0.1"/>
      <path id="Path_720" data-name="Path 720" d="M221.35,343.433s1.576,13.316,4.2,15.339,10.038,8.817,6.015,8.966-18.184-2.135-18.184-2.135l-1.832-3.5-3.264,1.338-3.119-.508-2.8-12.444s-3.926-7.031,1.595-9.87S221.35,343.433,221.35,343.433Z" transform="translate(-75.467 -82.195)" fill="#3a384d"/>
      <path id="Path_721" data-name="Path 721" d="M244.081,226.743s10.98,32.679,10.565,36.875c0,0,4.024,8.113-.415,20.725s-.466,2.858-.466,2.858-.42,37.248,2.62,39.873l1.781,10.416s-17.121,2.033-20-3.231c0,0,2.229-3.9.047-16.785s-6.388-41.267-6.388-41.267l-11.4-64.748Z" transform="translate(-77.239 -70.476)" opacity="0.1"/>
      <path id="Path_722" data-name="Path 722" d="M207.4,196.264s-12.22,4.69-5.646,21.746c0,0,9.87,18.118,10.556,25.429l12.5,24.944s-13.325,26.371-13.917,38.27c0,0-1.781,15.974-8.971,22.538,0,0,15.465,13.162,21.224,5.562,0,0-1.73-9.073,3.488-21.559s11.4-29.327,11.4-29.327S253,273.754,243.029,252.95l-11.19-46.322-.182-10.425-8.584-2.984Z" transform="translate(-75.357 -68.811)" opacity="0.1"/>
      <path id="Path_723" data-name="Path 723" d="M206.787,196.452s-12.22,4.69-5.646,21.746c0,0,9.866,18.123,10.551,25.434l12.5,24.944s-13.325,26.366-13.908,38.27c0,0-1.781,15.969-8.975,22.538,0,0,15.465,13.162,21.228,5.562,0,0-1.734-9.078,3.483-21.559s11.4-29.346,11.4-29.346,14.967-10.113,5-30.917L231.228,206.8l-.182-10.425-8.579-2.984Z" transform="translate(-75.301 -68.827)" opacity="0.1"/>
      <path id="Path_724" data-name="Path 724" d="M206.833,196.171s-12.22,4.7-5.646,21.746c0,0,7.25,13.311,9.749,21.718a64.808,64.808,0,0,0,4.2,10.486l9.1,18.184s-13.325,26.371-13.913,38.269c0,0-1.781,15.974-8.975,22.538,0,0,15.465,13.162,21.228,5.562,0,0-1.734-9.073,3.483-21.559s11.4-29.346,11.4-29.346,14.967-10.113,5-30.917l-11.19-46.322-.182-10.425-8.579-2.984Z" transform="translate(-75.305 -68.802)" fill="#bec7de"/>
      <path id="Path_725" data-name="Path 725" d="M206.833,196.169l15.689-3.063,2.047.713-14.617,2.849s-12.22,4.69-5.646,21.746c0,0,7.245,13.311,9.749,21.718a64.807,64.807,0,0,0,4.2,10.486l9.106,18.184s-13.344,26.362-13.917,38.26c0,0-1.786,15.974-8.975,22.538,0,0,6.663,5.67,12.868,7.418-6.844-.14-15.988-7.926-15.988-7.926,7.194-6.565,8.975-22.538,8.975-22.538.587-11.9,13.913-38.269,13.913-38.269l-9.1-18.184a64.807,64.807,0,0,1-4.2-10.486c-2.5-8.392-9.749-21.718-9.749-21.718C194.613,200.865,206.833,196.169,206.833,196.169Z" transform="translate(-75.305 -68.8)" opacity="0.1"/>
      <path id="Path_726" data-name="Path 726" d="M261.394,232.3l-9.731,18.953s2.853,25.252-2.6,25.97S245.8,249.51,245.8,249.51l5.245-24.212Z" transform="translate(-79.516 -71.739)" fill="#be7c5e"/>
      <path id="Path_727" data-name="Path 727" d="M320.28,246.366l6.956,32.842s17.074,23.019,4.989,20.268-12.752-15.139-12.752-15.139l-11.656-40Z" transform="translate(-85.218 -73.477)" fill="#be7c5e"/>
      <path id="Path_728" data-name="Path 728" d="M326.817,171l-17.2,10.817-6.14-16.454s14.239.97,15.9-4.359S326.817,171,326.817,171Z" transform="translate(-84.821 -65.767)" fill="#be7c5e"/>
      <path id="Path_729" data-name="Path 729" d="M254.085,122.858l-1.1-4.714-16.957.993-6.83,27.42,12.724.457,7.124-11.111,3.884-10.836Z" transform="translate(-20.925 -10.786)" fill="#be7c5e"/>
      <path id="Path_730" data-name="Path 730" d="M302.948,173.4l1.4-7.9s-31.383.392-38.4,7.521-24.221,9.684-24.221,9.684l-28.655,5.763-10.02,4.247s2.825,10.584,4.038,11.316,14.743-10.416,14.743-10.416l5.129,1.361-16.7,17.559,30.824,30.306.569-16.7,3.949-3.087s9.386,7.926,13.572,6.723l5.278-9.544s10.91-6.5,14.029-6c2.9.466,12.006-1.534,15.521-5.325a6.648,6.648,0,0,0,.671-.853c2.835-4.341,1.669,22.66,1.669,22.66l-1.595,9.87,17,.35-3.413-16.813s.173-17.563,1-24.361,2.331-16.146-.713-21.974l-5.987,5.7-10.416,16.72,3.954-14.556Z" transform="translate(-75.653 -66.28)" opacity="0.1"/>
      <path id="Path_731" data-name="Path 731" d="M303.048,172.81l-1.487-8.108s-28.483.6-35.5,7.726-24.245,9.679-24.245,9.679l-28.655,5.767-9.978,4.252s2.825,10.584,4.038,11.311,14.747-10.411,14.747-10.411l5.129,1.361-16.7,17.559,30.824,30.306.569-16.706,3.963-3.091s9.386,7.926,13.572,6.728l5.278-9.544s10.85-6.5,13.987-5.982c2.9.466,12.006-1.539,15.521-5.329a6.646,6.646,0,0,0,.671-.853c2.835-4.341,1.669,22.664,1.669,22.664l-1.595,9.87,17,.35-3.413-16.813s.173-17.568,1-24.361,2.331-16.151-.713-21.974l-5.987,5.674-10.43,16.706,3.954-14.556Z" transform="translate(-75.665 -66.207)" fill="#7faff2"/>
      <path id="Path_732" data-name="Path 732" d="M271.664,184.984s-16.976,14.318-18.752,22.03" transform="translate(-80.205 -68.059)" opacity="0.1"/>
      <path id="Path_733" data-name="Path 733" d="M292.4,198.565s-13.055,9.884-15.386,16.169" transform="translate(-82.405 -69.299)" opacity="0.1"/>
      <path id="Path_734" data-name="Path 734" d="M251.841,214.943s-1.226,5.931-1.469,9.092" transform="translate(-79.973 -70.794)" opacity="0.1"/>
      <path id="Path_735" data-name="Path 735" d="M242.919,228.244s-19.554-17.554-22.291-17.2" transform="translate(-77.258 -70.438)" opacity="0.1"/>
      <path id="Path_736" data-name="Path 736" d="M320.766,161.33c1.59-5.1,6.961,8.728,7.413,9.917a14.372,14.372,0,0,1-1.525-.168,15.2,15.2,0,0,1-10.146-6.43C318.6,163.993,320.272,162.953,320.766,161.33Z" transform="translate(-86.011 -65.797)" opacity="0.1"/>
      <circle id="Ellipse_83" data-name="Ellipse 83" cx="15.265" cy="15.265" r="15.265" transform="translate(227.607 74.651)" fill="#be7c5e"/>
      <path id="Path_737" data-name="Path 737" d="M339.683,155.018c1.2,1.972,2.289,4.112,4.14,5.492s4.765,1.692,6.3-.028a5.315,5.315,0,0,0,1.1-2.378c1.128-4.807-.844-9.791-3.4-14.029a34.77,34.77,0,0,0-12.383-12.589c-5.2-2.9-11.591-3.93-17.223-2s-10.257,7.087-10.724,13.018c-.256,3.031.508,6.122-.121,9.1a30.349,30.349,0,0,0-1.11,4.616c-.149,2.942,1.865,5.679,1.683,8.621-.112,1.814-1.04,3.46-1.609,5.189-1.4,4.168-.643,8.7-.932,13.088s-2.205,9.3-6.4,10.593a9.758,9.758,0,0,0,12.924-4.961c.573-1.478.783-3.119,1.655-4.443,1.473-2.238,4.537-3.124,5.772-5.5s.163-5.273-1.189-7.581-3.04-4.63-3.068-7.3a6.425,6.425,0,0,1,4.2-5.977,18.119,18.119,0,0,1,3.986-.615,21.107,21.107,0,0,0,9.25-3.529C336.116,151.456,337.076,150.729,339.683,155.018Z" transform="translate(-84.413 -62.902)" opacity="0.1"/>
      <path id="Path_738" data-name="Path 738" d="M339.789,154.285c1.2,1.977,2.289,4.112,4.14,5.5s4.765,1.692,6.3-.028a5.339,5.339,0,0,0,1.1-2.378c1.128-4.807-.844-9.791-3.4-14.029a34.734,34.734,0,0,0-12.384-12.589c-5.2-2.9-11.591-3.926-17.223-2s-11.3,7.162-11.8,13.092c-.256,3.031.112,4.434-.518,7.409-.326,1.553.434,4.662.354,6.238-.149,2.942,1.865,5.679,1.683,8.621-.112,1.814-1.04,3.46-1.609,5.185-1.4,4.173-.643,8.709-.932,13.092s-2.205,9.292-6.4,10.588a9.758,9.758,0,0,0,12.924-4.961c.573-1.473.783-3.115,1.655-4.439,1.473-2.238,4.537-3.124,5.772-5.5s.163-5.278-1.184-7.586-3.045-4.625-3.073-7.3a6.425,6.425,0,0,1,4.2-5.973,18.117,18.117,0,0,1,3.986-.615,21.163,21.163,0,0,0,9.25-3.529C336.232,150.723,337.192,150,339.789,154.285Z" transform="translate(-84.422 -62.836)" fill="#723647"/>
      <rect id="Rectangle_273" data-name="Rectangle 273" width="8.406" height="1.842" rx="0.921" transform="matrix(-0.987, -0.16, 0.16, -0.987, 231.077, 101.479)" fill="#252a62"/>
      <path id="Path_739" data-name="Path 739" d="M294.328,306.492A13.451,13.451,0,0,0,307.9,319.547h1.016a3.441,3.441,0,0,1,2.406.97,3.329,3.329,0,0,1,.974,1.706,3.109,3.109,0,0,1,.1.807v12.892a12.911,12.911,0,0,0,2.042,6.994,18.449,18.449,0,0,1,3.04,9.95h0a6.22,6.22,0,0,0,6.332,6.22,6.346,6.346,0,0,0,6.089-6.416v-3.222l1.7.2v3.231a6.215,6.215,0,0,0,6.327,6.21,6.347,6.347,0,0,0,6.094-6.416v-1.632c1.692.709,11.292.709,13.955,0l.723-.056v1.865a6.22,6.22,0,0,0,6.332,6.238,6.346,6.346,0,0,0,6.089-6.416v-2.676l.564-.051v2.937a6.22,6.22,0,0,0,6.332,6.206,6.322,6.322,0,0,0,6.061-5.544,7.666,7.666,0,0,0,.056-.872V339.185a20.66,20.66,0,0,0-4.406-12.775,3.833,3.833,0,0,1-.107-4.523c3.161-4.63,7.838-12.444,7.684-17.983a6.061,6.061,0,0,0-1.478-4.1c-.061-.07-.126-.135-.187-.2a6.92,6.92,0,0,0-11.866,5.534,18.513,18.513,0,0,1-.466,6.551,20.3,20.3,0,0,1-1.273,3.511,5.968,5.968,0,0,1-6.094,3.39,20.8,20.8,0,0,0-2.546-.154h-26.11a7.334,7.334,0,0,1-6.947-4.975,7.086,7.086,0,0,1-.4-2.364V290.77a3.954,3.954,0,0,0-4.075-3.954,3.861,3.861,0,0,0-2.728,1.273,4.238,4.238,0,0,0-1.1,2.844,2.089,2.089,0,0,1-2.093,2.093H307.6a13.269,13.269,0,0,0-13.269,13.465Z" transform="translate(-83.986 -77.356)" fill="#f3ad55"/>
      <path id="Path_740" data-name="Path 740" d="M379.686,361.035a6.22,6.22,0,0,0,6.136,4.662,6.322,6.322,0,0,0,6.061-5.544C388.078,359.142,382.866,358.442,379.686,361.035Z" transform="translate(-91.779 -83.968)" fill="#fbdca3"/>
      <path id="Path_741" data-name="Path 741" d="M365.371,361.035a6.224,6.224,0,0,0,6.14,4.662,6.318,6.318,0,0,0,6.033-5.544C373.786,359.142,368.588,358.442,365.371,361.035Z" transform="translate(-90.472 -83.968)" fill="#fbdca3"/>
      <path id="Path_742" data-name="Path 742" d="M335.56,361.035A6.22,6.22,0,0,0,341.7,365.7a6.322,6.322,0,0,0,6.061-5.544C343.953,359.142,338.749,358.442,335.56,361.035Z" transform="translate(-87.75 -83.968)" fill="#fbdca3"/>
      <path id="Path_743" data-name="Path 743" d="M320.014,361.035a6.22,6.22,0,0,0,6.14,4.663,6.318,6.318,0,0,0,6.033-5.544C328.429,359.142,323.217,358.442,320.014,361.035Z" transform="translate(-86.331 -83.968)" fill="#fbdca3"/>
      <path id="Path_744" data-name="Path 744" d="M381.194,312.76a88,88,0,0,0,13.987-7.786,6.061,6.061,0,0,0-1.478-4.1c-.061-.07-.126-.135-.187-.2a6.92,6.92,0,0,0-11.866,5.534,18.515,18.515,0,0,1-.457,6.551Z" transform="translate(-91.917 -78.425)" fill="#fbdca3"/>
      <path id="Path_745" data-name="Path 745" d="M372.151,321.652s-12.08,15.209-31.845-.037" transform="translate(-88.184 -80.533)" fill="#fbdca3"/>
      <path id="Path_746" data-name="Path 746" d="M333.144,290.547s-7.339,9.6,0,21.447" transform="translate(-87.232 -77.696)" fill="#fbdca3"/>
      <path id="Path_747" data-name="Path 747" d="M314.211,326.586s6.467,8.029.084,14.416" transform="translate(-85.801 -80.987)" fill="#fbdca3"/>
      <path id="Path_748" data-name="Path 748" d="M313.59,323.994c.466.466.317.886.466,1.548l20.981-5.5c-1.128-.872-2.532-1.9-2.993-3.264C329.535,318.716,324.561,321.989,313.59,323.994Z" transform="translate(-85.745 -80.091)" opacity="0.1"/>
      <path id="Path_749" data-name="Path 749" d="M313.025,323.213a3.329,3.329,0,0,1,.974,1.706l20.464-5.334A7.315,7.315,0,0,1,332,316.14C329.484,318.093,324,321.2,313.025,323.213Z" transform="translate(-85.693 -80.033)" fill="#383f4d"/>
      <path id="Path_750" data-name="Path 750" d="M331.34,317.381s-6.4,4.816-17.13,6.308" transform="translate(-85.801 -80.146)" opacity="0.1"/>
      <path id="Path_751" data-name="Path 751" d="M331.34,316.761s-6.4,4.816-17.13,6.308" transform="translate(-85.801 -80.09)" fill="#f3ad55"/>
      <path id="Path_752" data-name="Path 752" d="M314.091,316.526s-10.724,3.39-13.549-7.339Z" transform="translate(-84.553 -79.398)" opacity="0.1"/>
      <path id="Path_753" data-name="Path 753" d="M314.091,315.905s-10.724,3.39-13.549-7.339Z" transform="translate(-84.553 -79.341)" fill="#fbdca3"/>
      <ellipse id="Ellipse_84" data-name="Ellipse 84" cx="1.128" cy="1.977" rx="1.128" ry="1.977" transform="translate(209.214 225.836)" fill="#383f4d"/>
      <path id="Path_754" data-name="Path 754" d="M388.233,349.933l-2.257-18.067s6.775,10.724,2.257,18.067" transform="translate(-92.353 -81.469)" opacity="0.1"/>
      <path id="Path_755" data-name="Path 755" d="M385.356,331.866s6.775,10.724,2.257,18.067Z" transform="translate(-92.297 -81.469)" fill="#fbdca3"/>
    </g>
  </g>
</svg>
